<svg data-v-423bf9ae="" xmlns="http://www.w3.org/2000/svg" viewBox="0 0 275 105" class="iconLeftSlogan"><!----><!----><!----><g data-v-423bf9ae="" id="141a025e-4efc-4f63-8012-3896910aae0d" fill="white" transform="matrix(3.546099274790431,0,0,3.546099274790431,123.4408940981503,2.765957094463243)"><path d="M9.69 11.13L9.69 11.13L9.69 11.13Q9.73 11.21 9.69 11.30L9.69 11.30L9.69 11.30Q9.60 11.49 9.49 11.61L9.49 11.61L9.49 11.61Q9.35 11.75 9.17 11.75L9.17 11.75L9.17 11.75Q8.69 11.75 8.34 11.24L8.34 11.24L8.34 11.24Q8.04 10.79 7.78 9.90L7.78 9.90L7.78 9.90Q7.32 8.26 7.32 5.95L7.32 5.95L7.32 5.95Q7.32 5.40 7.39 4.82L7.39 4.82L7.39 4.82Q7.46 4.24 7.49 3.61L7.49 3.61L7.49 3.58L7.49 3.58Q7.38 4.30 7.18 5.06L7.18 5.06L7.18 5.06Q6.99 5.82 6.79 6.78L6.79 6.78L6.79 6.78Q6.68 7.21 6.60 7.53L6.60 7.53L6.60 7.53Q6.52 7.84 6.44 8.12L6.44 8.12L6.44 8.12Q6.36 8.40 6.24 8.69L6.24 8.69L6.24 8.69Q6.12 8.99 5.92 9.37L5.92 9.37L5.92 9.37Q5.81 9.60 5.68 9.77L5.68 9.77L5.68 9.77Q5.54 9.94 5.42 10.05L5.42 10.05L5.42 10.05Q5.12 10.32 4.86 10.32L4.86 10.32L4.86 10.32Q4.52 10.32 4.21 10.05L4.21 10.05L4.21 10.05Q3.95 9.83 3.71 9.35L3.71 9.35L3.71 9.35Q3.49 8.90 3.36 8.27L3.36 8.27L3.36 8.27Q3.23 7.64 3.14 6.72L3.14 6.72L3.14 6.71L3.14 6.71Q2.94 5.15 2.72 3.51L2.72 3.51L2.72 3.51Q2.70 3.53 2.70 3.54L2.70 3.54L2.70 3.54Q2.70 3.56 2.69 3.57L2.69 3.57L2.69 3.57Q2.69 3.58 2.69 3.60L2.69 3.60L2.69 3.60Q2.58 3.89 2.44 4.30L2.44 4.30L2.44 4.30Q2.31 4.70 2.16 5.24L2.16 5.24L2.16 5.24Q2.00 5.67 1.87 6.07L1.87 6.07L1.87 6.07Q1.74 6.47 1.61 6.83L1.61 6.83L1.61 6.83Q1.51 7.11 1.44 7.37L1.44 7.37L1.44 7.37Q1.36 7.63 1.29 7.88L1.29 7.88L1.29 7.88Q1.20 8.23 1.11 8.54L1.11 8.54L1.11 8.54Q1.02 8.85 1.06 9.17L1.06 9.17L1.06 9.17Q1.11 9.48 1.19 9.68L1.19 9.68L1.19 9.68Q1.27 9.88 1.37 10.05L1.37 10.05L1.37 10.05Q1.43 10.16 1.46 10.29L1.46 10.29L1.46 10.29Q1.48 10.42 1.45 10.50L1.45 10.50L1.45 10.50Q1.41 10.58 1.29 10.61L1.29 10.61L1.29 10.61Q1.16 10.63 0.91 10.50L0.91 10.50L0.91 10.50Q0.77 10.43 0.66 10.30L0.66 10.30L0.66 10.30Q0.55 10.18 0.46 10.03L0.46 10.03L0.46 10.03Q0.38 9.88 0.33 9.74L0.33 9.74L0.33 9.74Q0.28 9.60 0.25 9.49L0.25 9.49L0.25 9.49Q0.14 9.09 0.21 8.60L0.21 8.60L0.21 8.60Q0.28 8.12 0.43 7.56L0.43 7.56L0.43 7.56Q0.46 7.45 0.55 7.21L0.55 7.21L0.55 7.21Q0.63 6.97 0.71 6.71L0.71 6.71L0.71 6.71Q0.80 6.45 0.88 6.24L0.88 6.24L0.88 6.24Q0.97 6.02 0.99 5.94L0.99 5.94L0.99 5.94Q1.13 5.57 1.26 5.19L1.26 5.19L1.26 5.19Q1.39 4.80 1.50 4.40L1.50 4.40L1.50 4.40Q1.89 3.09 2.08 2.03L2.08 2.03L2.08 2.03Q2.27 0.97 2.27 0.14L2.27 0.14L2.27 0.14Q2.27-0.28 2.42-0.52L2.42-0.52L2.42-0.52Q2.62-0.78 2.95-0.78L2.95-0.78L2.95-0.78Q3.36-0.78 4.06-0.25L4.06-0.25L4.06-0.25Q4.17-0.18 4.12-0.03L4.12-0.03L4.12-0.03Q4.09 0.04 4.06 0.18L4.06 0.18L4.06 0.18Q4.03 0.32 4.01 0.58L4.01 0.58L4.01 0.58Q3.99 0.84 3.98 1.23L3.98 1.23L3.98 1.23Q3.96 1.62 3.96 2.18L3.96 2.18L3.96 2.18Q3.96 3.46 4.05 4.60L4.05 4.60L4.05 4.60Q4.13 5.74 4.27 6.75L4.27 6.75L4.27 6.75Q4.35 7.35 4.41 7.77L4.41 7.77L4.41 7.77Q4.47 8.19 4.58 8.58L4.58 8.58L4.58 8.58Q4.63 8.76 4.76 8.93L4.76 8.93L4.76 8.93Q4.89 9.09 5.00 9.10L5.00 9.10L5.00 9.10Q5.00 9.10 5.03 9.07L5.03 9.07L5.03 9.07Q5.07 9.04 5.13 8.97L5.13 8.97L5.13 8.97Q5.19 8.89 5.29 8.74L5.29 8.74L5.29 8.74Q5.38 8.60 5.49 8.36L5.49 8.36L5.49 8.36Q5.67 7.97 5.80 7.42L5.80 7.42L5.80 7.42Q5.94 6.87 6.13 6.10L6.13 6.10L6.13 6.10Q6.48 4.70 6.69 3.54L6.69 3.54L6.69 3.54Q6.90 2.38 7.10 1.40L7.10 1.40L7.10 1.40Q7.11 1.20 7.12 1.07L7.12 1.07L7.12 1.07Q7.13 0.94 7.13 0.83L7.13 0.83L7.13 0.83Q7.13 0.73 7.13 0.63L7.13 0.63L7.13 0.63Q7.13 0.53 7.13 0.39L7.13 0.39L7.13 0.39Q7.13 0.22 7.15 0.10L7.15 0.10L7.15 0.10Q7.17-0.03 7.20-0.14L7.20-0.14L7.20-0.14Q7.22-0.22 7.31-0.36L7.31-0.36L7.31-0.36Q7.39-0.49 7.53-0.49L7.53-0.49L7.53-0.49Q7.97-0.49 8.25-0.43L8.25-0.43L8.25-0.43Q8.44-0.41 8.58-0.37L8.58-0.37L8.58-0.37Q8.71-0.34 8.82-0.28L8.82-0.28L8.82-0.28Q8.99-0.20 9.05-0.08L9.05-0.08L9.05-0.08Q9.11 0.03 9.13 0.10L9.13 0.10L9.13 0.10Q9.13 0.18 9.11 0.21L9.11 0.21L9.11 0.21Q9.09 0.25 9.04 0.43L9.04 0.43L9.04 0.43Q9.00 0.60 8.93 1.04L8.93 1.04L8.93 1.04Q8.88 1.39 8.82 1.86L8.82 1.86L8.82 1.86Q8.76 2.32 8.69 2.91L8.69 2.91L8.69 2.91Q8.44 5.29 8.44 6.72L8.44 6.72L8.44 6.72Q8.44 8.93 8.74 9.94L8.74 9.94L8.74 9.94Q9.02 10.86 9.56 11.02L9.56 11.02L9.56 11.02Q9.66 11.05 9.69 11.13ZM13.29 5.53L13.29 5.53L13.29 5.53Q13.62 5.53 13.62 5.87L13.62 5.87L13.62 5.87Q13.62 6.23 13.52 6.64L13.52 6.64L13.52 6.64Q13.43 7.06 13.22 7.52L13.22 7.52L13.22 7.52Q12.81 8.43 12.12 8.43L12.12 8.43L12.12 8.43Q12.08 8.43 12.01 8.41L12.01 8.41L12.01 8.41Q11.94 8.39 11.75 8.32L11.75 8.32L11.75 8.32Q11.72 8.46 11.68 8.60L11.68 8.60L11.68 8.60Q11.65 8.75 11.61 8.92L11.61 8.92L11.61 8.95L11.61 8.95Q11.48 9.31 11.38 9.55L11.38 9.55L11.38 9.55Q11.28 9.79 11.20 9.93L11.20 9.93L11.20 9.93Q10.84 10.51 10.29 10.51L10.29 10.51L10.29 10.51Q9.62 10.51 9.30 9.84L9.30 9.84L9.30 9.84Q9.00 9.24 9.00 8.06L9.00 8.06L9.00 8.06Q9.00 6.66 9.23 6.12L9.23 6.12L9.23 6.03L9.23 6.03Q9.21 5.95 9.21 5.89L9.21 5.89L9.21 5.89Q9.21 5.82 9.21 5.77L9.21 5.77L9.21 5.75L9.21 5.75Q9.24 5.54 9.32 5.46L9.32 5.46L9.32 5.46Q9.34 5.40 9.37 5.28L9.37 5.28L9.37 5.28Q9.39 5.15 9.46 4.87L9.46 4.87L9.46 4.87Q9.51 4.66 9.60 4.54L9.60 4.54L9.60 4.54Q9.69 4.41 9.79 4.34L9.79 4.34L9.79 4.34Q9.88 4.27 9.98 4.25L9.98 4.25L9.98 4.25Q10.08 4.23 10.16 4.23L10.16 4.23L10.16 4.23Q10.60 4.23 11.09 4.59L11.09 4.59L11.09 4.59Q11.58 4.94 11.73 5.38L11.73 5.38L11.73 5.38Q11.75 5.43 11.77 5.54L11.77 5.54L11.77 5.54Q11.79 5.66 11.80 5.89L11.80 5.89L11.80 5.89Q11.82 6.12 11.83 6.51L11.83 6.51L11.83 6.51Q11.84 6.90 11.84 7.50L11.84 7.50L11.84 7.50Q11.91 7.56 12.01 7.56L12.01 7.56L12.01 7.56Q12.14 7.56 12.30 7.49L12.30 7.49L12.30 7.49Q12.46 7.42 12.61 7.10L12.61 7.10L12.61 7.10Q12.64 7.01 12.72 6.77L12.72 6.77L12.72 6.77Q12.80 6.52 12.92 5.95L12.92 5.95L12.92 5.95Q13.01 5.53 13.29 5.53ZM10.63 9.17L10.63 9.17L10.63 9.17Q10.84 8.71 10.90 8.45L10.90 8.45L10.90 8.45Q10.96 8.19 10.96 8.08L10.96 8.08L10.96 8.08Q10.96 7.88 10.93 7.62L10.93 7.62L10.93 7.62Q10.91 7.35 10.85 7.03L10.85 7.03L10.85 7.03Q10.77 6.58 10.75 6.41L10.75 6.41L10.75 6.41Q10.72 6.24 10.72 6.17L10.72 6.17L10.72 6.17Q10.72 6.10 10.72 6.02L10.72 6.02L10.72 6.02Q10.72 5.94 10.75 5.82L10.75 5.82L10.75 5.82Q10.77 5.71 10.77 5.63L10.77 5.63L10.77 5.63Q10.77 5.56 10.77 5.52L10.77 5.52L10.77 5.52Q10.77 5.32 10.70 5.26L10.70 5.26L10.70 5.26Q10.63 5.19 10.51 5.19L10.51 5.19L10.51 5.19Q10.50 5.21 10.46 5.26L10.46 5.26L10.46 5.26Q10.43 5.32 10.38 5.45L10.38 5.45L10.38 5.45Q10.33 5.59 10.27 5.82L10.27 5.82L10.27 5.82Q10.21 6.06 10.14 6.44L10.14 6.44L10.14 6.44Q10.02 7.03 9.97 7.47L9.97 7.47L9.97 7.47Q9.91 7.91 9.91 8.23L9.91 8.23L9.91 8.23Q9.91 8.43 9.93 8.67L9.93 8.67L9.93 8.67Q9.94 8.90 9.99 9.12L9.99 9.12L9.99 9.12Q10.04 9.34 10.12 9.48L10.12 9.48L10.12 9.48Q10.21 9.63 10.35 9.65L10.35 9.65L10.35 9.65Q10.37 9.62 10.44 9.53L10.44 9.53L10.44 9.53Q10.50 9.44 10.63 9.17ZM16.97 5.53L16.97 5.53L16.97 5.53Q17.30 5.53 17.30 5.87L17.30 5.87L17.30 5.87Q17.30 6.23 17.21 6.64L17.21 6.64L17.21 6.64Q17.11 7.06 16.90 7.52L16.90 7.52L16.90 7.52Q16.49 8.43 15.81 8.43L15.81 8.43L15.81 8.43Q15.76 8.43 15.69 8.41L15.69 8.41L15.69 8.41Q15.62 8.39 15.43 8.32L15.43 8.32L15.43 8.32Q15.40 8.46 15.37 8.60L15.37 8.60L15.37 8.60Q15.33 8.75 15.29 8.92L15.29 8.92L15.29 8.95L15.29 8.95Q15.16 9.31 15.06 9.55L15.06 9.55L15.06 9.55Q14.97 9.79 14.88 9.93L14.88 9.93L14.88 9.93Q14.52 10.51 13.97 10.51L13.97 10.51L13.97 10.51Q13.30 10.51 12.98 9.84L12.98 9.84L12.98 9.84Q12.68 9.24 12.68 8.06L12.68 8.06L12.68 8.06Q12.68 6.66 12.91 6.12L12.91 6.12L12.91 6.03L12.91 6.03Q12.89 5.95 12.89 5.89L12.89 5.89L12.89 5.89Q12.89 5.82 12.89 5.77L12.89 5.77L12.89 5.75L12.89 5.75Q12.92 5.54 13.01 5.46L13.01 5.46L13.01 5.46Q13.02 5.40 13.05 5.28L13.05 5.28L13.05 5.28Q13.08 5.15 13.15 4.87L13.15 4.87L13.15 4.87Q13.19 4.66 13.28 4.54L13.28 4.54L13.28 4.54Q13.37 4.41 13.47 4.34L13.47 4.34L13.47 4.34Q13.57 4.27 13.66 4.25L13.66 4.25L13.66 4.25Q13.76 4.23 13.85 4.23L13.85 4.23L13.85 4.23Q14.28 4.23 14.77 4.59L14.77 4.59L14.77 4.59Q15.26 4.94 15.41 5.38L15.41 5.38L15.41 5.38Q15.43 5.43 15.45 5.54L15.45 5.54L15.45 5.54Q15.47 5.66 15.48 5.89L15.48 5.89L15.48 5.89Q15.50 6.12 15.51 6.51L15.51 6.51L15.51 6.51Q15.53 6.90 15.53 7.50L15.53 7.50L15.53 7.50Q15.60 7.56 15.69 7.56L15.69 7.56L15.69 7.56Q15.82 7.56 15.98 7.49L15.98 7.49L15.98 7.49Q16.14 7.42 16.30 7.10L16.30 7.10L16.30 7.10Q16.32 7.01 16.40 6.77L16.40 6.77L16.40 6.77Q16.48 6.52 16.60 5.95L16.60 5.95L16.60 5.95Q16.69 5.53 16.97 5.53ZM14.31 9.17L14.31 9.17L14.31 9.17Q14.52 8.71 14.58 8.45L14.58 8.45L14.58 8.45Q14.64 8.19 14.64 8.08L14.64 8.08L14.64 8.08Q14.64 7.88 14.62 7.62L14.62 7.62L14.62 7.62Q14.59 7.35 14.53 7.03L14.53 7.03L14.53 7.03Q14.45 6.58 14.43 6.41L14.43 6.41L14.43 6.41Q14.41 6.24 14.41 6.17L14.41 6.17L14.41 6.17Q14.41 6.10 14.41 6.02L14.41 6.02L14.41 6.02Q14.41 5.94 14.43 5.82L14.43 5.82L14.43 5.82Q14.45 5.71 14.45 5.63L14.45 5.63L14.45 5.63Q14.45 5.56 14.45 5.52L14.45 5.52L14.45 5.52Q14.45 5.32 14.38 5.26L14.38 5.26L14.38 5.26Q14.31 5.19 14.20 5.19L14.20 5.19L14.20 5.19Q14.18 5.21 14.15 5.26L14.15 5.26L14.15 5.26Q14.11 5.32 14.06 5.45L14.06 5.45L14.06 5.45Q14.01 5.59 13.95 5.82L13.95 5.82L13.95 5.82Q13.89 6.06 13.82 6.44L13.82 6.44L13.82 6.44Q13.71 7.03 13.65 7.47L13.65 7.47L13.65 7.47Q13.59 7.91 13.59 8.23L13.59 8.23L13.59 8.23Q13.59 8.43 13.61 8.67L13.61 8.67L13.61 8.67Q13.62 8.90 13.67 9.12L13.67 9.12L13.67 9.12Q13.72 9.34 13.80 9.48L13.80 9.48L13.80 9.48Q13.89 9.63 14.03 9.65L14.03 9.65L14.03 9.65Q14.06 9.62 14.12 9.53L14.12 9.53L14.12 9.53Q14.18 9.44 14.31 9.17ZM21.14 5.60L21.14 5.60L21.14 5.60Q21.20 5.60 21.33 5.66L21.33 5.66L21.33 5.66Q21.46 5.73 21.46 6.02L21.46 6.02L21.46 6.02Q21.46 6.48 20.92 8.12L20.92 8.12L20.92 8.12Q20.57 9.20 20.26 9.80L20.26 9.80L20.26 9.80Q19.92 10.44 19.57 10.44L19.57 10.44L19.57 10.44Q18.83 10.44 18.62 9.21L18.62 9.21L18.62 9.21Q18.58 9.02 18.54 8.68L18.54 8.68L18.54 8.68Q18.51 8.34 18.48 7.85L18.48 7.85L18.48 7.85Q18.40 8.20 18.28 8.63L18.28 8.63L18.28 8.63Q18.17 9.06 18.03 9.58L18.03 9.58L18.03 9.58Q18.00 9.65 17.96 9.78L17.96 9.78L17.96 9.78Q17.92 9.91 17.85 10.04L17.85 10.04L17.85 10.04Q17.78 10.18 17.66 10.28L17.66 10.28L17.66 10.28Q17.54 10.37 17.37 10.37L17.37 10.37L17.37 10.37Q17.29 10.37 17.17 10.35L17.17 10.35L17.17 10.35Q17.05 10.32 16.94 10.23L16.94 10.23L16.94 10.23Q16.83 10.15 16.74 10.00L16.74 10.00L16.74 10.00Q16.65 9.84 16.60 9.58L16.60 9.58L16.60 9.56L16.60 9.56Q16.59 9.28 16.58 8.99L16.58 8.99L16.58 8.99Q16.56 8.71 16.55 8.43L16.55 8.43L16.55 8.43Q16.51 7.81 16.55 7.21L16.55 7.21L16.55 7.21Q16.56 6.99 16.57 6.87L16.57 6.87L16.57 6.87Q16.58 6.76 16.59 6.71L16.59 6.71L16.48 6.47L16.48 6.47Q16.45 6.41 16.45 6.37L16.45 6.37L16.45 6.37Q16.48 6.06 16.50 5.94L16.50 5.94L16.50 5.94Q16.52 5.82 16.55 5.77L16.55 5.77L16.55 5.77Q16.67 5.40 17.11 5.40L17.11 5.40L17.11 5.40Q17.35 5.40 17.47 5.53L17.47 5.53L17.47 5.53Q17.60 5.66 17.60 5.87L17.60 5.87L17.60 5.87Q17.60 5.89 17.58 5.96L17.58 5.96L17.58 5.96Q17.57 6.02 17.50 6.27L17.50 6.27L17.50 6.27Q17.46 6.41 17.43 6.52L17.43 6.52L17.43 6.52Q17.40 6.64 17.40 6.75L17.40 6.75L17.40 6.75Q17.40 6.90 17.40 7.13L17.40 7.13L17.40 7.13Q17.40 7.35 17.39 7.63L17.39 7.63L17.39 7.63Q17.39 7.91 17.38 8.09L17.38 8.09L17.38 8.09Q17.37 8.27 17.37 8.36L17.37 8.36L17.37 8.36Q17.37 8.83 17.42 9.02L17.42 9.02L17.42 9.00L17.42 9.00Q17.53 8.60 17.60 8.32L17.60 8.32L17.60 8.32Q17.67 8.04 17.74 7.85L17.74 7.85L17.74 7.85Q18.16 6.55 18.24 5.57L18.24 5.57L18.24 5.57Q18.28 4.83 18.54 4.68L18.54 4.68L18.54 4.68Q18.59 4.63 18.66 4.63L18.66 4.63L18.66 4.63Q19.25 4.68 19.43 4.89L19.43 4.89L19.43 4.89Q19.61 5.11 19.61 5.32L19.61 5.32L19.61 5.36L19.61 5.36Q19.60 5.39 19.57 5.59L19.57 5.59L19.57 5.59Q19.54 5.78 19.45 6.36L19.45 6.36L19.45 6.36Q19.38 6.86 19.33 7.29L19.33 7.29L19.33 7.29Q19.29 7.71 19.29 8.08L19.29 8.08L19.29 8.08Q19.29 8.54 19.32 8.82L19.32 8.82L19.32 8.82Q19.35 9.10 19.39 9.25L19.39 9.25L19.39 9.25Q19.43 9.39 19.47 9.44L19.47 9.44L19.47 9.44Q19.50 9.49 19.52 9.49L19.52 9.49L19.52 9.49Q19.53 9.48 19.58 9.43L19.58 9.43L19.58 9.43Q19.63 9.38 19.71 9.23L19.71 9.23L19.71 9.23Q19.80 9.07 19.92 8.79L19.92 8.79L19.92 8.79Q20.05 8.51 20.20 8.05L20.20 8.05L20.20 8.05Q20.36 7.56 20.48 7.10L20.48 7.10L20.48 7.10Q20.61 6.64 20.71 6.22L20.71 6.22L20.71 6.22Q20.76 5.98 20.85 5.79L20.85 5.79L20.85 5.79Q20.94 5.60 21.14 5.60ZM26.74 10.78L26.74 10.78L26.74 10.78Q26.57 10.82 26.45 10.84L26.45 10.84L26.45 10.84Q26.32 10.85 26.21 10.86L26.21 10.86L26.21 10.86Q26.11 10.86 26.00 10.86L26.00 10.86L26.00 10.86Q25.90 10.85 25.76 10.82L25.76 10.82L25.76 10.82Q25.28 10.75 25.03 10.50L25.03 10.50L25.03 10.50Q24.75 10.26 24.64 9.80L24.64 9.80L24.64 9.79L24.64 9.79Q24.47 9.16 24.67 7.73L24.67 7.73L24.67 7.73Q24.70 7.53 24.74 7.20L24.74 7.20L24.74 7.20Q24.79 6.87 24.86 6.41L24.86 6.41L24.86 6.41Q24.93 5.95 25.00 5.59L25.00 5.59L25.00 5.59Q25.06 5.22 25.09 4.96L25.09 4.96L25.09 4.96Q25.21 4.02 25.28 3.18L25.28 3.18L25.28 3.18Q25.34 2.34 25.38 1.58L25.38 1.58L25.38 1.58Q25.40 1.27 25.41 1.08L25.41 1.08L25.41 1.08Q25.42 0.88 25.44 0.77L25.44 0.77L25.44 0.77Q25.45 0.66 25.46 0.59L25.46 0.59L25.46 0.59Q25.47 0.52 25.47 0.45L25.47 0.45L25.47 0.45Q25.45 0.42 25.47 0.30L25.47 0.30L25.47 0.30Q25.48 0.18 25.49 0.15L25.49 0.15L25.49 0.15Q25.52-0.01 25.61-0.11L25.61-0.11L25.61-0.11Q25.70-0.20 25.87-0.25L25.87-0.25L25.87-0.25Q26.07-0.32 26.33-0.30L26.33-0.30L26.33-0.30Q26.60-0.28 26.78-0.08L26.78-0.08L26.78-0.08Q26.84-0.01 26.87 0.08L26.87 0.08L26.87 0.08Q26.91 0.17 26.88 0.35L26.88 0.35L26.88 0.35Q26.87 0.42 26.85 0.51L26.85 0.51L26.85 0.51Q26.84 0.60 26.80 0.73L26.80 0.73L26.80 0.73Q26.77 0.78 26.75 0.91L26.75 0.91L26.75 0.91Q26.73 1.04 26.70 1.16L26.70 1.16L26.70 1.16Q26.67 1.29 26.65 1.39L26.65 1.39L26.65 1.39Q26.63 1.48 26.63 1.50L26.63 1.50L26.63 1.50Q26.61 1.64 26.59 1.77L26.59 1.77L26.59 1.77Q26.57 1.90 26.54 2.09L26.54 2.09L26.54 2.09Q26.52 2.27 26.47 2.53L26.47 2.53L26.47 2.53Q26.43 2.80 26.38 3.22L26.38 3.22L26.38 3.22Q26.24 4.07 26.13 4.84L26.13 4.84L26.13 4.84Q26.03 5.61 25.93 6.31L25.93 6.31L25.93 6.31Q25.82 7.20 25.72 7.90L25.72 7.90L25.72 7.90Q25.62 8.61 25.65 8.97L25.65 8.97L25.65 8.97Q25.66 9.20 25.68 9.37L25.68 9.37L25.68 9.37Q25.70 9.55 25.77 9.67L25.77 9.67L25.77 9.67Q25.83 9.79 25.95 9.85L25.95 9.85L25.95 9.85Q26.07 9.91 26.26 9.91L26.26 9.91L26.26 9.91Q26.45 9.91 26.68 9.80L26.68 9.80L26.68 9.80Q26.91 9.69 27.16 9.55L27.16 9.55L27.16 9.55Q27.27 9.48 27.38 9.39L27.38 9.39L27.38 9.39Q27.50 9.31 27.82 9.11L27.82 9.11L27.82 9.11Q28.39 8.64 28.74 8.68L28.74 8.68L28.74 8.68Q28.85 8.71 28.92 8.70L28.92 8.70L28.92 8.70Q28.99 8.69 29.08 8.78L29.08 8.78L29.08 8.78Q29.15 8.85 29.18 8.94L29.18 8.94L29.18 8.94Q29.20 9.03 29.19 9.09L29.19 9.09L29.19 9.09Q29.12 9.42 28.69 9.74L28.69 9.74L28.69 9.74Q28.25 10.07 27.45 10.47L27.45 10.47L27.45 10.47Q27.30 10.54 27.22 10.59L27.22 10.59L27.22 10.59Q27.15 10.64 27.08 10.68L27.08 10.68L27.08 10.68Q27.02 10.71 26.94 10.73L26.94 10.73L26.94 10.73Q26.87 10.75 26.74 10.78ZM31.36 9.66L31.36 9.66L31.36 9.66Q31.00 10.44 30.46 10.44L30.46 10.44L30.46 10.44Q30.28 10.44 30.06 10.35L30.06 10.35L30.06 10.35Q29.85 10.25 29.65 9.93L29.65 9.93L29.65 9.93Q29.53 9.69 29.46 9.40L29.46 9.40L29.46 9.40Q29.39 9.11 29.39 8.75L29.39 8.75L29.39 8.75Q29.39 8.44 29.51 7.07L29.51 7.07L29.51 7.07Q29.58 6.40 29.61 5.99L29.61 5.99L29.61 5.99Q29.64 5.57 29.64 5.43L29.64 5.43L29.64 5.43Q29.64 5.29 29.64 5.22L29.64 5.22L29.64 5.22Q29.64 5.15 29.68 5.12L29.68 5.12L29.68 5.12Q29.72 5.10 29.83 5.11L29.83 5.11L29.83 5.11Q29.93 5.12 30.14 5.17L30.14 5.17L30.14 5.17Q30.53 5.24 30.64 5.35L30.64 5.35L30.64 5.35Q30.74 5.46 30.74 5.54L30.74 5.54L30.74 5.54Q30.74 5.59 30.72 5.67L30.72 5.67L30.72 5.67Q30.70 5.75 30.67 5.85L30.67 5.85L30.67 5.85Q30.65 5.95 30.63 6.03L30.63 6.03L30.63 6.03Q30.60 6.12 30.60 6.15L30.60 6.15L30.60 6.15Q30.58 6.26 30.53 6.55L30.53 6.55L30.53 6.55Q30.48 6.85 30.41 7.17L30.41 7.17L30.41 7.17Q30.32 7.62 30.29 7.99L30.29 7.99L30.29 7.99Q30.25 8.36 30.25 8.78L30.25 8.78L30.25 8.78Q30.25 8.85 30.26 8.97L30.26 8.97L30.26 8.97Q30.27 9.10 30.29 9.23L30.29 9.23L30.29 9.23Q30.31 9.37 30.36 9.46L30.36 9.46L30.36 9.46Q30.41 9.56 30.49 9.58L30.49 9.58L30.49 9.58Q30.52 9.56 30.60 9.44L30.60 9.44L30.60 9.44Q30.69 9.32 30.83 8.96L30.83 8.96L30.83 8.96Q30.86 8.88 31.02 8.50L31.02 8.50L31.02 8.50Q31.19 8.12 31.40 7.45L31.40 7.45L31.40 7.45Q31.47 7.22 31.58 6.90L31.58 6.90L31.58 6.90Q31.70 6.58 31.82 6.13L31.82 6.13L31.82 6.13Q31.84 6.08 31.86 5.99L31.86 5.99L31.86 5.99Q31.89 5.89 31.93 5.81L31.93 5.81L31.93 5.81Q31.98 5.73 32.05 5.67L32.05 5.67L32.05 5.67Q32.12 5.61 32.23 5.61L32.23 5.61L32.23 5.61Q32.27 5.61 32.33 5.68L32.33 5.68L32.33 5.68Q32.40 5.74 32.40 6.03L32.40 6.03L32.40 6.03Q32.40 6.10 32.38 6.22L32.38 6.22L32.38 6.22Q32.37 6.34 32.31 6.59L32.31 6.59L32.31 6.59Q32.26 6.83 32.15 7.21L32.15 7.21L32.15 7.21Q32.05 7.59 31.86 8.18L31.86 8.18L31.86 8.18Q31.67 8.81 31.55 9.16L31.55 9.16L31.55 9.16Q31.43 9.52 31.36 9.66ZM30.49 4.55L30.49 4.55L30.49 4.55Q30.13 4.55 29.92 4.27L29.92 4.27L29.92 4.27Q29.69 4.00 29.69 3.72L29.69 3.72L29.69 3.72Q29.69 3.49 29.92 3.26L29.92 3.26L29.92 3.26Q30.17 3.04 30.37 3.04L30.37 3.04L30.37 3.04Q30.70 3.04 30.88 3.23L30.88 3.23L30.88 3.23Q31.07 3.43 31.07 3.79L31.07 3.79L31.07 3.79Q31.07 4.05 31.00 4.20L31.00 4.20L31.00 4.20Q30.94 4.35 30.84 4.43L30.84 4.43L30.84 4.43Q30.74 4.51 30.65 4.53L30.65 4.53L30.65 4.53Q30.55 4.55 30.49 4.55ZM35.53 10.70L35.53 10.70L35.53 10.70Q35.81 10.70 35.98 10.76L35.98 10.76L35.98 10.76Q36.15 10.82 36.24 10.91L36.24 10.91L36.24 10.91Q36.33 11.00 36.36 11.10L36.36 11.10L36.36 11.10Q36.39 11.20 36.39 11.28L36.39 11.28L36.39 11.28Q36.39 11.33 36.37 11.40L36.37 11.40L36.37 11.40Q36.36 11.48 36.31 11.56L36.31 11.56L36.31 11.56Q36.26 11.63 36.15 11.69L36.15 11.69L36.15 11.69Q36.05 11.75 35.87 11.75L35.87 11.75L35.87 11.75Q35.62 11.75 35.28 11.58L35.28 11.58L35.28 11.58Q34.80 11.58 34.57 11.59L34.57 11.59L34.57 11.59Q34.34 11.61 34.24 11.62L34.24 11.62L34.24 12.68L34.24 12.68Q34.24 14.34 33.85 15.12L33.85 15.12L33.85 15.12Q33.33 16.14 32.02 16.14L32.02 16.14L32.02 16.14Q30.95 16.14 30.17 15.40L30.17 15.40L30.17 15.40Q29.37 14.64 29.37 13.66L29.37 13.66L29.37 13.66Q29.37 12.91 30.10 12.31L30.10 12.31L30.10 12.31Q30.80 11.73 32.17 11.27L32.17 11.27L32.19 11.26L32.19 11.26Q32.42 11.20 32.71 11.13L32.71 11.13L32.71 11.13Q33.00 11.06 33.33 10.95L33.33 10.95L33.33 10.95Q33.31 10.75 33.29 10.39L33.29 10.39L33.29 10.39Q33.28 10.30 33.27 10.22L33.27 10.22L33.27 10.22Q33.26 10.14 33.26 10.07L33.26 10.07L33.26 10.07Q32.94 10.65 32.54 10.65L32.54 10.65L32.54 10.65Q31.99 10.65 31.64 10.11L31.64 10.11L31.64 10.11Q31.33 9.62 31.33 8.83L31.33 8.83L31.33 8.83Q31.33 8.30 31.45 7.67L31.45 7.67L31.45 7.67Q31.57 7.03 31.81 6.19L31.81 6.19L31.81 6.19Q31.92 5.74 32.04 5.43L32.04 5.43L32.04 5.43Q32.16 5.12 32.27 4.89L32.27 4.89L32.27 4.89Q32.37 4.70 32.51 4.51L32.51 4.51L32.51 4.51Q32.66 4.33 32.87 4.33L32.87 4.33L32.87 4.33Q33.03 4.33 33.21 4.40L33.21 4.40L33.21 4.40Q33.39 4.48 33.55 4.61L33.55 4.61L33.55 4.61Q33.71 4.75 33.83 4.93L33.83 4.93L33.83 4.93Q33.95 5.11 33.98 5.31L33.98 5.31L33.98 5.31Q34.05 5.75 33.99 5.94L33.99 5.94L33.99 5.94Q33.94 6.12 33.88 6.20L33.88 6.20L33.88 6.20Q33.85 6.23 33.80 6.27L33.80 6.27L33.80 6.27Q33.75 6.31 33.69 6.33L33.69 6.33L33.69 6.33Q33.63 6.36 33.58 6.33L33.58 6.33L33.58 6.33Q33.53 6.31 33.52 6.22L33.52 6.22L33.52 6.22Q33.47 5.88 33.38 5.63L33.38 5.63L33.38 5.63Q33.28 5.39 33.10 5.36L33.10 5.36L33.10 5.36Q33.05 5.43 32.96 5.70L32.96 5.70L32.96 5.70Q32.86 5.96 32.68 6.61L32.68 6.61L32.68 6.61Q32.47 7.38 32.36 7.97L32.36 7.97L32.36 7.97Q32.26 8.57 32.26 9.10L32.26 9.10L32.26 9.10Q32.26 9.53 32.31 9.70L32.31 9.70L32.31 9.70Q32.37 9.87 32.42 9.87L32.42 9.87L32.42 9.87Q32.42 9.87 32.47 9.85L32.47 9.85L32.47 9.85Q32.52 9.83 32.62 9.69L32.62 9.69L32.62 9.69Q32.72 9.55 32.85 9.26L32.85 9.26L32.85 9.26Q32.98 8.97 33.15 8.44L33.15 8.44L33.15 8.44Q33.24 8.18 33.31 7.96L33.31 7.96L33.31 7.96Q33.38 7.74 33.42 7.55L33.42 7.55L33.42 7.55Q33.47 7.36 33.51 7.18L33.51 7.18L33.51 7.18Q33.54 7 33.57 6.80L33.57 6.80L33.57 6.80Q33.59 6.69 33.56 6.65L33.56 6.65L33.56 6.65Q33.54 6.61 33.59 6.55L33.59 6.55L33.59 6.55Q33.63 6.50 33.68 6.50L33.68 6.50L33.68 6.50Q33.73 6.50 33.75 6.50L33.75 6.50L33.75 6.50Q33.78 6.50 33.82 6.50L33.82 6.50L33.82 6.50Q33.87 6.51 33.89 6.51L33.89 6.51L33.89 6.51Q33.95 6.51 33.99 6.54L33.99 6.54L33.99 6.54Q34.03 6.58 34.09 6.59L34.09 6.59L34.09 6.59Q34.15 6.61 34.18 6.63L34.18 6.63L34.18 6.63Q34.22 6.65 34.26 6.68L34.26 6.68L34.26 6.68Q34.31 6.69 34.37 6.72L34.37 6.72L34.37 6.72Q34.41 6.75 34.45 6.79L34.45 6.79L34.45 6.79Q34.48 6.83 34.45 6.89L34.45 6.89L34.45 6.89Q34.33 7.31 34.24 7.81L34.24 7.81L34.24 7.81Q34.16 8.26 34.12 8.62L34.12 8.62L34.12 8.62Q34.09 8.97 34.09 9.34L34.09 9.34L34.09 9.34Q34.09 9.63 34.17 10.78L34.17 10.78L34.17 10.78Q35.11 10.70 35.53 10.70ZM31.88 15.27L31.88 15.27L31.88 15.27Q33.46 15.27 33.46 12.78L33.46 12.78L33.46 12.78Q33.46 12.75 33.45 12.56L33.45 12.56L33.45 12.56Q33.43 12.36 33.40 11.75L33.40 11.75L33.40 11.75Q32.66 11.77 32.23 11.94L32.23 11.94L32.23 11.94Q31.47 12.25 30.88 12.73L30.88 12.73L30.88 12.73Q30.23 13.27 30.23 13.79L30.23 13.79L30.23 13.79Q30.23 14.38 30.73 14.81L30.73 14.81L30.73 14.81Q31.25 15.27 31.88 15.27ZM39.79 5.66L39.79 5.66L39.79 5.66Q40.01 5.66 40.01 6.06L40.01 6.06L40.01 6.06Q40.01 6.09 40.00 6.15L40.00 6.15L40.00 6.15Q40.00 6.20 39.95 6.41L39.95 6.41L39.95 6.41Q39.90 6.62 39.79 7.02L39.79 7.02L39.79 7.02Q39.69 7.42 39.49 8.12L39.49 8.12L39.49 8.12Q39.16 9.34 39.06 9.58L39.06 9.58L39.06 9.58Q38.75 10.35 38.22 10.35L38.22 10.35L38.22 10.35Q37.21 10.35 37.04 8.48L37.04 8.48L37.04 8.47L37.03 8.26L37.03 7.27L37.03 7.27Q36.90 7.76 36.72 8.51L36.72 8.51L36.72 8.51Q36.54 9.27 36.27 10.43L36.27 10.43L36.26 10.51L36.19 10.56L36.19 10.56Q36.04 10.65 35.87 10.65L35.87 10.65L35.87 10.65Q35.46 10.65 35.27 10.02L35.27 10.02L35.27 10.02Q35.07 9.38 35.07 8.01L35.07 8.01L35.07 8.01Q35.07 7.64 35.15 6.75L35.15 6.75L35.15 6.75Q35.24 5.87 35.42 4.40L35.42 4.40L35.42 4.40Q35.59 2.95 35.68 2.02L35.68 2.02L35.68 2.02Q35.77 1.09 35.77 0.69L35.77 0.69L35.77 0.22L35.78 0.18L35.78 0.18Q35.84 0.07 35.98-0.04L35.98-0.04L35.98-0.04Q36.12-0.15 36.40-0.15L36.40-0.15L36.44-0.15L36.44-0.15Q36.93-0.13 36.93 0.31L36.93 0.31L36.93 0.31Q36.93 0.57 36.83 0.88L36.83 0.88L36.83 0.88Q36.71 1.25 36.67 1.55L36.67 1.55L36.67 1.55Q36.32 3.72 36.14 5.33L36.14 5.33L36.14 5.33Q35.97 6.94 35.97 8.02L35.97 8.02L35.97 8.02Q35.98 8.05 35.98 8.09L35.98 8.09L35.98 8.09Q35.98 8.13 35.99 8.20L35.99 8.20L35.99 8.20Q35.99 8.26 36.01 8.34L36.01 8.34L36.01 8.37L36.01 8.37Q36.08 8.09 36.17 7.76L36.17 7.76L36.17 7.76Q36.26 7.42 36.37 7.01L36.37 7.01L36.37 7.01Q36.61 6.06 36.75 5.51L36.75 5.51L36.75 5.51Q36.89 4.96 36.92 4.79L36.92 4.79L36.92 4.79Q36.99 4.44 37.13 4.33L37.13 4.33L37.13 4.33Q37.28 4.23 37.42 4.23L37.42 4.23L37.42 4.23Q37.52 4.23 37.68 4.30L37.68 4.30L37.68 4.30Q37.84 4.37 38.19 4.68L38.19 4.68L38.28 4.75L38.26 4.86L38.26 4.86Q37.86 7.01 37.86 8.39L37.86 8.39L37.86 8.39Q37.86 8.85 37.93 9.12L37.93 9.12L37.93 9.12Q38.01 9.39 38.14 9.39L38.14 9.39L38.14 9.39Q38.15 9.39 38.23 9.32L38.23 9.32L38.23 9.32Q38.32 9.24 38.46 8.95L38.46 8.95L38.46 8.95Q38.57 8.71 38.72 8.35L38.72 8.35L38.72 8.35Q38.88 7.99 39.00 7.52L39.00 7.52L39.00 7.52Q39.07 7.27 39.19 6.92L39.19 6.92L39.19 6.92Q39.30 6.58 39.41 6.15L39.41 6.15L39.41 6.15Q39.44 6.03 39.52 5.84L39.52 5.84L39.52 5.84Q39.59 5.66 39.79 5.66ZM42.42 2.66L42.42 2.66L42.42 2.66Q42.62 2.69 42.62 2.87L42.62 2.87L42.62 2.97L42.62 2.97Q42.62 3.04 42.57 3.09L42.57 3.09L42.57 3.09Q42.53 3.15 42.39 3.21L42.39 3.21L42.39 3.21Q42.25 3.26 41.76 3.35L41.76 3.35L41.76 3.35Q41.44 3.42 41.23 3.43L41.23 3.43L41.23 3.43Q41.02 3.44 40.87 3.44L40.87 3.44L40.43 3.47L40.43 3.47Q40.40 3.67 40.37 4.09L40.37 4.09L40.37 4.09Q40.33 4.52 40.26 5.15L40.26 5.15L40.26 5.15Q40.21 5.68 40.18 6.02L40.18 6.02L40.18 6.02Q40.15 6.36 40.13 6.55L40.13 6.55L40.13 6.55Q40.11 6.75 40.10 6.83L40.10 6.83L40.10 6.83Q40.10 6.92 40.10 6.94L40.10 6.94L40.10 6.94Q40.10 7.62 40.10 8.03L40.10 8.03L40.10 8.03Q40.11 8.44 40.12 8.60L40.12 8.60L40.12 8.60Q40.17 9.04 40.24 9.18L40.24 9.18L40.24 9.18Q40.32 9.32 40.35 9.32L40.35 9.32L40.35 9.32Q40.40 9.30 40.46 9.23L40.46 9.23L40.46 9.23Q40.52 9.16 40.59 9.03L40.59 9.03L40.59 9.03Q40.67 8.90 40.78 8.67L40.78 8.67L40.78 8.67Q40.94 8.29 41.11 7.71L41.11 7.71L41.11 7.71Q41.29 7.13 41.47 6.36L41.47 6.36L41.47 6.36Q41.51 6.17 41.55 6.05L41.55 6.05L41.55 6.05Q41.59 5.92 41.62 5.82L41.62 5.82L41.62 5.82Q41.65 5.75 41.71 5.64L41.71 5.64L41.71 5.64Q41.78 5.53 41.92 5.53L41.92 5.53L41.92 5.53Q42.04 5.53 42.15 5.62L42.15 5.62L42.15 5.62Q42.27 5.71 42.27 5.95L42.27 5.95L42.27 5.95Q42.27 6.22 42.14 6.75L42.14 6.75L42.14 6.75Q42.01 7.29 41.73 8.13L41.73 8.13L41.73 8.13Q41.37 9.21 41.03 9.72L41.03 9.72L41.03 9.72Q40.68 10.23 40.31 10.23L40.31 10.23L40.31 10.23Q39.77 10.23 39.45 9.42L39.45 9.42L39.45 9.42Q39.17 8.69 39.17 7.62L39.17 7.62L39.17 7.62Q39.17 7.27 39.26 6.27L39.26 6.27L39.26 6.27Q39.35 5.28 39.55 3.50L39.55 3.50L39.55 3.50Q39.42 3.53 39.31 3.49L39.31 3.49L39.31 3.49Q39.20 3.46 39.16 3.43L39.16 3.43L39.16 3.43Q39.13 3.42 39.09 3.37L39.09 3.37L39.09 3.37Q39.05 3.33 38.93 3.29L38.93 3.29L38.93 3.29Q38.74 3.22 38.69 3.12L38.69 3.12L38.69 3.12Q38.64 3.01 38.64 2.94L38.64 2.94L38.64 2.94Q38.64 2.90 38.69 2.79L38.69 2.79L38.69 2.79Q38.74 2.69 39.02 2.63L39.02 2.63L39.02 2.63Q39.10 2.62 39.16 2.61L39.16 2.61L39.16 2.61Q39.21 2.60 39.27 2.60L39.27 2.60L39.27 2.60Q39.33 2.59 39.40 2.58L39.40 2.58L39.40 2.58Q39.48 2.58 39.61 2.56L39.61 2.56L39.61 2.56Q39.62 2.41 39.63 2.18L39.63 2.18L39.63 2.18Q39.65 1.96 39.66 1.67L39.66 1.67L39.59 1.43L39.59 1.43Q39.59 1.34 39.61 1.30L39.61 1.30L39.61 1.30Q39.72 1.08 39.96 1.08L39.96 1.08L39.96 1.08Q40.21 1.08 40.67 1.37L40.67 1.37L40.67 1.37Q40.75 1.44 40.75 1.54L40.75 1.54L40.75 1.86L40.75 1.90L40.75 1.90Q40.73 2.06 40.69 2.22L40.69 2.22L40.69 2.22Q40.66 2.38 40.61 2.58L40.61 2.58L40.61 2.58Q40.71 2.58 40.73 2.58L40.73 2.58L40.73 2.58Q40.75 2.58 40.77 2.58L40.77 2.58L40.77 2.58Q40.78 2.59 40.84 2.60L40.84 2.60L40.84 2.60Q40.89 2.60 41.09 2.60L41.09 2.60L41.09 2.60Q41.27 2.60 41.38 2.61L41.38 2.61L41.38 2.61Q41.48 2.62 41.60 2.63L41.60 2.63L41.60 2.63Q41.72 2.63 41.90 2.64L41.90 2.64L41.90 2.64Q42.08 2.65 42.42 2.66Z"></path></g><!----><g data-v-423bf9ae="" id="b8c2e8b1-84f3-435a-aacd-7723fe175489" transform="matrix(1.0754222446017796,0,0,1.0754222446017796,-1.149058242463319,-1.1427885761563772)" stroke="none" fill="white"><path d="M98.175 71.521a51.404 51.404 0 0 1-25.059 6.488c-28.519 0-51.639-23.121-51.639-51.639a51.376 51.376 0 0 1 6.489-25.06c-15.851 8.815-26.58 25.726-26.58 45.15 0 28.517 23.12 51.638 51.639 51.638 19.424.002 36.334-10.729 45.15-26.577zM82.348 12l4.217 8.548L96 21.919l-6.825 6.654 1.61 9.397-8.437-4.436-8.439 4.436 1.612-9.397-6.827-6.654 9.435-1.371z"></path><path d="M57.109 38.922l2.269 4.598 5.074.736-3.671 3.58.867 5.055-4.539-2.388-4.539 2.388.867-5.055-3.671-3.58 5.075-.736zM51.259 3l2.924 5.925 6.539.95-4.731 4.613L57.107 21l-5.848-3.075L45.41 21l1.117-6.512-4.731-4.613 6.539-.95z"></path></g><!----><g data-v-423bf9ae="" id="88684706-97af-4f86-bf96-c1c8878998fe" fill="white" transform="matrix(1.1047928699318248,0,0,1.1047928699318248,122.84063038836669,57.67993632705894)"><path d="M7.83 3.22L7.83 2.21L1.13 2.21L1.13 11.48L2.18 11.48L2.18 7.46L7.21 7.46L7.21 6.44L2.18 6.44L2.18 3.22ZM23.11 3.22L23.11 2.21L16.30 2.21L16.30 11.48L23.11 11.48L23.11 10.47L17.35 10.47L17.35 7.35L22.50 7.35L22.50 6.33L17.35 6.33L17.35 3.22ZM32.31 4.65C32.31 4.03 32.68 3.08 34.78 3.08C36.47 3.08 37.25 3.82 37.37 4.75L38.44 4.75C38.36 3.36 37.24 2.10 34.78 2.10C32.45 2.10 31.29 3.15 31.29 4.66C31.29 7.84 37.63 6.69 37.63 8.96C37.63 10.05 36.65 10.60 35.08 10.60C33.47 10.60 32.17 10.05 32.10 8.71L31.01 8.71C31.15 10.37 32.27 11.59 35.01 11.59C37.30 11.59 38.68 10.64 38.68 8.92C38.68 5.68 32.31 6.80 32.31 4.65ZM53.89 2.21L46.37 2.21L46.37 3.22L49.60 3.22L49.60 11.48L50.65 11.48L50.65 3.22L53.89 3.22ZM63.27 2.21L62.22 2.21L62.22 11.48L63.27 11.48ZM79.00 2.21L75.80 10.29L72.59 2.21L71.44 2.21L75.19 11.48L76.40 11.48L80.15 2.21ZM91.88 2.21L90.57 2.21L86.63 11.48L87.79 11.48L88.93 8.79L93.52 8.79L94.65 11.48L95.82 11.48ZM89.33 7.83L91.22 3.30L93.11 7.83ZM103.99 2.21L103.99 11.48L110.10 11.48L110.10 10.47L105.04 10.47L105.04 2.21Z"></path></g></svg>